<svg width="329" height="236" viewBox="0 0 329 236" fill="none" xmlns="http://www.w3.org/2000/svg">
<g clip-path="url(#clip0_99_7637)">
<path d="M244.878 221.33L245.66 222.72H245.747C239.356 210.991 233.009 199.261 226.618 187.488H226.531C232.661 198.74 238.748 210.035 244.878 221.33Z" stroke="#DA9A73" stroke-width="0.25" stroke-miterlimit="10"/>
<path d="M262.619 220.288L264.141 220.07H264.228C258.054 221.026 251.924 221.895 245.751 222.764H245.664C251.316 221.895 256.968 221.069 262.576 220.288H262.619Z" stroke="#DA9A73" stroke-width="0.25" stroke-miterlimit="10"/>
<path d="M264.137 225.76V227.194L264.224 227.237C264.224 224.892 264.224 222.502 264.224 220.156H264.137C264.137 221.981 264.137 223.892 264.137 225.76Z" stroke="#DA9A73" stroke-width="0.25" stroke-miterlimit="10"/>
<path d="M217.62 233.885L216.012 234.102H216.099C232.141 231.843 248.183 229.541 264.225 227.238H264.138C248.618 229.41 233.141 231.626 217.62 233.885Z" stroke="#DA9A73" stroke-width="0.25" stroke-miterlimit="10"/>
<path d="M192.493 190.746L191.754 189.355H191.841C199.927 204.343 208.014 219.244 216.1 234.145H216.013C208.187 219.635 200.362 205.212 192.536 190.746H192.493Z" stroke="#DA9A73" stroke-width="0.25" stroke-miterlimit="10"/>
<path d="M4.28801 172.587L2.67944 172.804H2.76639C36.8942 167.982 71.022 163.117 105.15 158.251C130.365 176.019 161.059 187.227 191.839 189.399H191.752C160.972 187.14 130.278 175.932 105.063 158.164C71.4567 162.943 37.8941 167.765 4.28801 172.544V172.587Z" stroke="#DA9A73" stroke-width="0.25" stroke-miterlimit="10"/>
<path d="M64.7618 127.058L66.153 126.016H66.24C45.0677 141.655 23.8954 157.251 2.76664 172.847H2.67969C23.3737 157.555 44.0678 142.307 64.7618 127.058Z" stroke="#DA9A73" stroke-width="0.25" stroke-miterlimit="10"/>
<path d="M107.715 139.222C108.28 139.309 108.802 139.483 109.28 139.744C94.8898 135.182 80.4996 130.621 66.1094 126.016C79.9779 130.403 93.8029 134.791 107.671 139.222H107.715Z" stroke="#DA9A73" stroke-width="0.25" stroke-miterlimit="10"/>
<path d="M198.445 73.8864L199.88 72.8438H199.967C169.751 95.1733 139.536 117.459 109.321 139.745H109.234C138.971 117.763 168.708 95.8249 198.445 73.8864Z" stroke="#DA9A73" stroke-width="0.25" stroke-miterlimit="10"/>
<path d="M208.795 31.0948L209.578 29.9219H209.665C201.187 42.5202 197.839 57.9424 199.97 72.9301H199.883C197.839 58.3768 200.883 43.476 208.838 31.1383L208.795 31.0948Z" stroke="#DA9A73" stroke-width="0.25" stroke-miterlimit="10"/>
<path d="M177.84 13.8891V13.6719L177.883 13.7153C182.535 27.0957 196.056 32.3522 209.663 29.9629H209.577C196.056 32.2653 182.622 27.1391 177.84 13.8891Z" stroke="#DA9A73" stroke-width="0.25" stroke-miterlimit="10"/>
<path d="M297.701 42.6488L297.788 42.9529H297.875C285.397 -4.74713 246.357 4.11516 208.229 9.45861C198.1 10.8922 188.013 12.2824 177.884 13.716H177.797C210.664 9.02418 261.964 -9.82993 286.528 19.2766C291.962 25.7062 295.57 34.525 297.701 42.6488Z" stroke="#DA9A73" stroke-width="0.25" stroke-miterlimit="10"/>
<path d="M324.697 39.1313L326.262 38.9141H326.349C316.828 40.3042 307.35 41.6509 297.829 42.9977H297.742C306.698 41.6944 315.697 40.3911 324.653 39.1313H324.697Z" stroke="#DA9A73" stroke-width="0.25" stroke-miterlimit="10"/>
<path d="M303.742 68.2383C312.263 107.554 303.481 151.692 267.484 173.891C255.268 181.406 240.66 185.533 226.574 187.445H226.661C275.744 180.842 306.177 146.522 306.829 97.258C306.959 87.5268 305.916 77.7522 303.873 68.2383H303.786H303.742Z" stroke="#DA9A73" stroke-width="0.25" stroke-miterlimit="10"/>
<path d="M304.833 66.8472L303.746 68.2374H303.833C311.354 58.5062 318.875 48.7316 326.353 38.957H326.266C319.093 48.2103 311.963 57.507 304.789 66.8038L304.833 66.8472Z" stroke="#DA9A73" stroke-width="0.25" stroke-miterlimit="10"/>
<path d="M326.221 38.9116C318.743 48.6862 311.222 58.4608 303.701 68.2353C305.744 77.7493 306.788 87.5239 306.657 97.255C306.005 146.476 275.573 180.839 226.489 187.485C232.88 199.215 239.227 210.988 245.618 222.761C251.792 221.892 257.922 220.98 264.095 220.111C264.095 222.457 264.095 224.846 264.095 227.192C248.053 229.494 232.011 231.797 215.968 234.099C207.882 219.199 199.796 204.254 191.709 189.353C160.929 187.181 130.236 175.973 105.02 158.205C70.8927 163.071 36.7649 167.936 2.6371 172.802L3.37618 172.281L3.3327 172.324L2.59363 172.845C23.7224 157.249 44.8947 141.653 66.067 126.058C80.4137 130.576 94.7604 135.137 109.107 139.699C139.322 117.412 169.537 95.1264 199.752 72.8403C197.622 57.896 200.97 42.4739 209.447 29.9189C195.84 32.3083 182.319 27.0517 177.667 13.6714C187.666 12.2812 197.622 10.8476 207.621 9.45745C245.836 4.114 285.137 -4.96551 297.701 42.9517C307.222 41.605 316.7 40.2583 326.221 38.9116ZM326.221 38.9116L325.09 39.1722" stroke="#DA9A73" stroke-width="0.25" stroke-miterlimit="10"/>
<path d="M2.76562 172.845L3.98292 172.584M2.76562 172.845C23.9379 157.249 45.1102 141.653 66.239 126.057C80.5857 130.619 94.9324 135.18 109.279 139.698C139.494 117.412 169.709 95.1262 199.924 72.8401C197.794 57.8524 201.142 42.4737 209.619 29.9188C196.012 32.3081 182.491 27.095 177.839 13.6713M2.76562 172.845L2.8091 172.758C36.9369 167.893 71.0647 163.027 105.193 158.162C130.408 175.886 161.101 187.138 191.881 189.31C199.968 204.211 208.054 219.155 216.14 234.056C232.183 231.753 248.225 229.451 264.267 227.148C264.267 224.803 264.267 222.413 264.267 220.067C258.094 220.936 251.964 221.848 245.79 222.717C239.4 210.988 233.052 199.215 226.661 187.442C240.747 185.53 255.355 181.403 267.571 173.888C303.568 151.689 312.35 107.551 303.829 68.2352C311.307 58.4606 318.828 48.686 326.349 38.9114M177.839 13.6713L177.969 13.7581M177.839 13.6713C211.184 8.97944 262.919 -10.1788 287.309 20.2745C292.395 26.6606 295.786 35.0885 297.83 42.9516C307.351 41.6049 316.828 40.2582 326.349 38.9114M326.349 38.9114L325.958 39.6065" stroke="#DA9A73" stroke-width="0.25" stroke-miterlimit="10"/>
<path d="M237.051 166.461C211.879 147.651 270.831 65.1966 297.96 90.8712C331.261 122.324 274.875 185.75 237.051 166.461Z" stroke="#DA9A73" stroke-width="0.25" stroke-miterlimit="10"/>
<path d="M211.14 168.417C197.185 149.823 257.832 64.111 279.961 62.6339C337.043 58.7675 307.698 154.081 278.787 171.284C257.354 184.056 230.226 186.402 211.184 168.417H211.14Z" stroke="#DA9A73" stroke-width="0.25" stroke-miterlimit="10"/>
<path d="M203.448 178.101C166.973 161.376 206.404 129.098 220.838 112.98C235.272 96.8632 246.488 60.2411 265.617 51.4656C329.612 22.1419 322.004 149.516 279.833 175.364C254.053 191.177 229.881 191.481 203.448 178.058V178.101Z" stroke="#DA9A73" stroke-width="0.25" stroke-miterlimit="10"/>
<path d="M175.49 168.067C174.186 166.199 173.229 164.114 172.664 161.898C173.099 130.837 212.835 116.11 228.529 93.1719C244.224 70.2342 250.18 22.4038 290.351 40.9104C358.215 72.2326 305.045 175.235 252.701 189.093C227.616 195.74 193.967 190.006 175.49 168.067Z" stroke="#DA9A73" stroke-width="0.25" stroke-miterlimit="10"/>
<path d="M175.361 179.19C169.058 175.975 163.754 171.24 159.928 165.332C159.45 163.941 158.971 162.551 158.493 161.118C158.493 159.641 158.406 158.164 158.406 156.73C168.449 126.059 204.055 116.415 221.227 91.6094C238.4 66.8037 241.617 10.8495 288.135 32.3971C316.785 45.6905 320.828 85.4406 318.437 112.679C314.785 154.21 292.787 172.847 256.964 188.313C227.923 200.868 204.664 194.525 175.318 179.19H175.361Z" stroke="#DA9A73" stroke-width="0.25" stroke-miterlimit="10"/>
<path d="M153.15 171.369C150.845 169.371 148.846 167.068 147.193 164.505C146.715 163.115 146.194 161.768 145.672 160.378C145.672 158.901 145.672 157.467 145.672 155.99C156.062 130.229 185.017 117.63 203.928 98.9501C224.188 78.9231 222.492 40.5632 247.012 26.5312C314.181 -11.9589 327.658 107.204 310.616 144.521C293.574 181.839 258.185 175.062 237.404 200.085C236.404 200.78 235.621 201.692 235.056 202.735C233.969 203.647 232.709 204.299 231.317 204.646L229.318 204.733C205.58 190.484 175.452 189.18 153.236 171.369H153.15Z" stroke="#DA9A73" stroke-width="0.25" stroke-miterlimit="10"/>
<path d="M159.323 180.534C150.237 176.755 142.15 170.933 135.716 163.635C135.151 162.288 134.499 160.985 133.803 159.725C133.76 158.291 133.673 156.858 133.586 155.424C134.238 153.904 134.847 152.383 135.412 150.819C150.541 130.705 172.67 116.63 192.103 100.991C217.406 80.616 215.232 65.4979 227.448 36.3914C227.97 34.2627 228.318 32.0905 228.535 29.9184C229.318 28.7889 230.1 27.6594 230.796 26.443C263.532 5.11265 294.878 19.8397 309.92 52.6389C310.442 53.1602 310.964 53.725 311.398 54.3332C312.137 54.8545 312.92 55.2889 313.702 55.6799C314.789 56.7225 315.876 57.8086 316.92 58.9381C317.441 60.1545 317.789 61.4143 318.05 62.6741C310.746 90.3471 321.876 118.064 308.529 145.65C295.182 173.236 268.576 184.14 240.056 193.219C239.186 194.045 238.534 194.957 238.056 196.043L237.882 197.086L237.274 198.215L237.1 200.518L236.839 200.952C236.665 201.995 236.361 203.037 236.056 204.08V204.949C235.056 206.252 234.404 207.729 234.143 209.38C232.97 210.336 231.709 211.118 230.361 211.769C221.318 208.12 213.188 201.995 206.798 194.218C190.582 191.004 174.409 187.485 159.323 180.534Z" stroke="#DA9A73" stroke-width="0.25" stroke-miterlimit="10"/>
<path d="M69.7201 158.033L69.0245 157.946L67.5898 157.294C67.9376 155.817 68.0681 154.34 68.0246 152.819C72.1112 147.65 77.676 145.391 84.1973 146.303C86.3275 147.519 88.4578 148.606 90.7185 149.518L91.4141 152.646L92.0227 153.688C85.3711 157.946 77.5456 159.466 69.7636 158.033H69.7201Z" stroke="#DA9A73" stroke-width="0.25" stroke-miterlimit="10"/>
<path d="M125.712 162.986C125.712 162.986 125.495 162.768 125.364 162.682C124.669 161.291 123.756 160.118 122.582 159.163C122.365 157.816 121.93 156.513 121.234 155.296C121.973 153.776 122.669 152.212 123.408 150.691C148.971 123.192 182.404 103.773 210.923 79.6193C211.14 78.9242 211.401 78.1857 211.662 77.4906C211.184 62.9373 215.14 48.775 221.792 35.916C221.792 35.3947 221.879 34.8299 222.053 34.3086C221.748 33.8307 221.574 33.3094 221.531 32.7447L220.879 31.9192L220.488 30.1381L219.444 29.052L219.618 25.0553L219.705 24.8381L222.14 22.1446C223.227 21.6668 224.183 21.0586 225.052 20.2332C259.876 6.67907 293.004 9.93726 306.829 48.6881C307.394 49.166 307.785 49.7307 308.09 50.4258C308.698 50.643 309.394 50.8168 310.046 50.9037C311.959 51.7291 313.959 52.5111 315.915 53.2061C317.132 54.2922 318.002 55.552 318.567 57.0725C318.35 58.3758 318.263 59.6791 318.393 60.9824C304.959 85.0062 319.567 117.588 306.698 144.479C293.047 173.064 266.788 185.055 237.53 192.049C237.53 192.049 237.486 192.092 237.486 192.136L236.269 192.831L235.704 193.917L236.182 194.742L236.052 195.872L236.356 196.871L236.095 198.348C236.312 199.782 236.617 201.172 237.095 202.519C238.312 208.557 238.921 214.596 238.921 220.764C237.921 222.024 236.921 223.241 235.921 224.5C234.269 224.674 232.617 224.718 230.922 224.587C219.357 216.29 211.619 204.3 202.619 193.526C175.448 189.79 146.319 182.014 125.712 162.986Z" stroke="#DA9A73" stroke-width="0.25" stroke-miterlimit="10"/>
<path d="M127.89 169.457C124.02 167.068 120.325 164.418 116.76 161.594L116.151 161.29L114.847 159.943L113.673 159.465L112.891 158.857L110.674 158.683L110.587 158.597C109.761 158.51 108.978 158.336 108.152 158.075C87.2841 161.16 66.0249 167.242 44.8526 164.592L43.6353 162.637L43.418 160.378L44.1136 159.769C44.6353 158.683 45.2874 157.728 46.1134 156.859L46.4177 156.12C48.1133 155.078 49.5045 153.688 50.5479 151.95C64.112 137.874 78.937 131.836 97.066 141.741C98.0224 142.219 98.7615 142.61 99.8049 143.218C100.761 143.305 101.631 143.565 102.457 144.043L103.631 144.304L104.978 145.129L105.935 145.303L107.5 146.085L109.63 146.259L110.152 146.476C111.282 146.259 111.978 146.302 112.847 146.476C114.586 146.476 116.195 146.128 117.76 145.39C146.975 122.105 177.364 100.166 207.058 77.4022L207.579 75.7514C206.231 61.4153 209.796 47.0358 216.926 34.5678L217.796 33.0473L217.361 32.1784C216.796 32.2219 216.274 32.2653 215.709 32.2653L215.187 31.7874L213.97 31.5268L213.231 30.6145C211.927 30.0932 210.535 29.7022 209.144 29.3981L208.057 28.1382C207.014 27.4432 205.971 26.835 204.884 26.2268C204.71 24.7063 204.797 23.2292 205.101 21.7522C242.011 0.291501 290.008 2.20298 304.528 47.2096C308.093 47.5137 311.615 47.9481 315.136 48.5563C316.006 49.2079 317.006 49.6423 318.049 49.8596L319.484 51.2497C319.266 52.5965 319.31 53.9432 319.571 55.2465C318.788 56.4194 318.31 57.6792 318.092 58.9825C315.397 63.2833 312.875 67.6276 310.484 72.1022C319.875 130.142 295.703 181.143 233.925 190.57L233.012 191.092L232.664 191.83L233.925 194.002V194.089C237.968 203.603 241.62 213.465 244.359 223.326C244.011 224.629 243.794 225.976 243.75 227.323V227.41C242.533 228.061 241.49 228.887 240.533 229.842C236.447 231.667 232.012 232.449 227.578 232.058C226.534 231.58 225.534 231.059 224.534 230.494C214.883 218.591 207.579 204.776 198.58 192.438C173.625 189.962 149.279 182.447 127.846 169.457H127.89Z" stroke="#DA9A73" stroke-width="0.25" stroke-miterlimit="10"/>
<path d="M108.584 159.423H108.497C81.6726 162.334 54.8921 168.503 27.8941 168.894L25.8943 168.372H24.8509L22.8945 167.243L24.6335 165.939L25.7204 163.159C26.7203 162.29 27.7637 161.552 28.9375 160.9L30.2418 159.075C31.2852 158.207 32.4155 157.381 33.6328 156.686L34.8936 155.253C36.7195 154.166 38.4585 152.82 39.9802 151.256C41.8061 149.996 43.5451 148.606 45.2406 147.172L45.8058 146.912C53.3704 140.743 61.3698 135.008 69.6735 129.882C70.8039 130.099 71.9342 130.186 73.108 130.143C83.0203 133.14 92.9761 136.268 102.758 139.657C105.801 140.612 108.801 141.481 111.888 142.307L113.931 141.742C143.103 118.717 173.448 96.9959 203.489 75.1443L203.75 74.3189C201.707 59.3746 205.185 43.9959 213.706 31.5279L213.489 31.0934C212.445 31.1803 211.445 31.2672 210.402 31.3106L209.271 30.9631L207.663 31.3975C204.228 31.0065 200.881 30.3549 197.533 29.4426L197.098 29.1385C196.794 29.0082 196.49 28.9647 196.142 28.9647C194.533 28.009 192.925 27.0967 191.316 26.1844L189.838 24.0992L188.403 22.9697L188.23 20.6672L187.577 19.1901L188.795 17.9738C189.925 17.7131 190.969 17.2352 191.968 16.5401C203.576 13.6295 215.358 11.3705 227.183 9.54588C262.007 4.15899 290.7 5.11473 301.221 45.0385L302.569 45.2557C308.09 44.3 313.742 43.9525 319.306 44.1697L321.567 45.5164L321.654 45.777V48.9484C317.22 56.2467 312.35 63.3713 307.22 70.1484C319.393 127.232 291.396 181.579 230.313 188.964L229.879 189.225L229.705 189.572C234.617 198.478 239.356 207.557 243.747 216.724L244.095 217.115C244.573 217.94 244.964 218.809 245.182 219.721L245.486 220.069C245.964 220.938 246.312 221.85 246.529 222.806L246.79 223.153C247.225 224.066 247.442 225.021 247.529 226.021L248.008 226.368L247.747 227.324C246.747 228.149 245.921 229.105 245.269 230.235C237.704 232.667 229.748 234.057 221.792 234.275C220.879 233.71 220.01 233.145 219.14 232.494C217.097 229.496 215.271 226.368 213.662 223.11C212.923 222.285 212.402 221.285 212.054 220.243C211.358 219.417 210.793 218.462 210.445 217.419C205.359 208.644 200.446 199.564 195.229 190.876C165.84 189.181 136.842 178.234 112.54 161.943C111.236 161.03 109.975 160.162 108.627 159.38L108.584 159.423Z" stroke="#DA9A73" stroke-width="0.25" stroke-miterlimit="10"/>
<path d="M163.97 126.537C201.141 151.212 258.485 86.8303 227.704 53.8573C201.489 25.7499 144.146 105.163 163.97 126.537Z" stroke="#DA9A73" stroke-width="0.25" stroke-miterlimit="10"/>
<path d="M146.147 132.533C181.231 168.721 239.226 132.489 247.269 90.6107C250.834 71.9304 248.313 36.7418 226.054 29.8344C199.969 21.7541 189.317 54.423 177.014 70.7574C164.71 87.0918 132.713 109.639 146.147 132.533Z" stroke="#DA9A73" stroke-width="0.25" stroke-miterlimit="10"/>
<path d="M146.016 146.912C197.751 173.542 257.138 138.571 259.398 79.7062C260.311 55.639 251.312 15.802 219.836 17.8873C193.403 19.625 184.882 58.289 170.579 75.8398C156.276 93.3906 107.149 128.101 146.016 146.912Z" stroke="#DA9A73" stroke-width="0.25" stroke-miterlimit="10"/>
<path d="M124.931 139.611C162.407 189.917 247.878 161.593 264.66 107.724C272.529 82.5271 271.79 40.5615 250.27 21.7943C213.012 -10.6574 198.969 32.3074 183.449 58.2861C167.928 84.2648 123.584 103.206 123.105 134.962C123.584 136.526 124.192 138.134 124.888 139.611H124.931Z" stroke="#DA9A73" stroke-width="0.25" stroke-miterlimit="10"/>
<path d="M130.672 154.687C182.841 185.227 259.401 172.108 274.052 103.468C279.747 76.9248 278.486 35.5674 255.314 16.8002C211.448 -18.7359 200.014 33.0477 183.624 60.9379C167.234 88.8281 126.715 100.905 115.934 133.661C115.934 135.138 115.934 136.572 116.021 138.049C116.499 139.439 116.977 140.829 117.455 142.219C120.716 147.432 125.237 151.733 130.672 154.687Z" stroke="#DA9A73" stroke-width="0.25" stroke-miterlimit="10"/>
<path d="M116.889 151.343C139.018 169.937 169.755 170.849 193.71 185.446L195.709 185.359C197.101 185.012 198.361 184.36 199.448 183.448C200.013 182.405 200.796 181.493 201.796 180.798C218.925 160.206 251.01 162.552 268.399 137.225C283.007 115.981 287.963 76.9696 281.92 51.8163C275.877 26.6631 254.183 -1.74844 224.012 4.15976C187.971 11.2409 194.927 49.4704 176.667 73.0164C158.408 96.5623 122.411 106.554 110.281 136.747C110.281 138.224 110.281 139.657 110.281 141.134C110.803 142.481 111.325 143.871 111.803 145.261C113.238 147.521 114.933 149.519 116.889 151.343Z" stroke="#DA9A73" stroke-width="0.25" stroke-miterlimit="10"/>
<path d="M130.105 164.68C145.409 171.935 161.842 175.541 178.363 178.799C184.753 186.575 192.84 192.701 201.882 196.35C203.23 195.698 204.491 194.916 205.665 193.96C205.926 192.353 206.578 190.876 207.578 189.573V188.704C207.882 187.705 208.143 186.662 208.36 185.576L208.621 185.142L208.795 182.839L209.404 181.71L209.578 180.667C210.056 179.581 210.664 178.669 211.577 177.843C212.36 177.626 213.056 177.278 213.664 176.801C242.532 169.415 267.877 156.904 280.833 128.449C293.049 101.514 282.441 74.4062 289.528 47.5152C289.311 46.2119 288.919 44.9521 288.398 43.7791C287.354 42.6931 286.311 41.607 285.224 40.5209C284.441 40.13 283.615 39.6955 282.92 39.1742C282.485 38.566 282.007 38.0013 281.442 37.48C266.356 4.7242 235.141 -9.95941 202.404 11.3275C201.709 12.5004 200.97 13.6734 200.143 14.8029C199.926 16.975 199.535 19.1472 199.057 21.2324C186.84 50.2955 189.014 65.3701 163.755 85.7447C144.409 101.297 122.063 115.373 107.107 135.487C106.542 137.051 105.933 138.571 105.281 140.091C105.368 141.525 105.455 142.959 105.499 144.392C106.238 145.652 106.846 146.955 107.412 148.302C113.628 155.383 121.41 161.031 130.149 164.767L130.105 164.68Z" stroke="#DA9A73" stroke-width="0.25" stroke-miterlimit="10"/>
<path d="M47.7629 146.345C55.7623 147.952 63.8486 146.475 70.6742 142.088L70.0656 141.045L69.3699 137.917C67.1093 137.005 64.979 135.919 62.8922 134.702C56.4144 133.747 50.8062 136.006 46.763 141.219C46.8065 142.696 46.676 144.216 46.3282 145.65L47.7629 146.301V146.345Z" stroke="#DA9A73" stroke-width="0.25" stroke-miterlimit="10"/>
<path d="M104.238 151.212C124.758 170.37 154.016 178.234 181.275 181.926C190.274 192.743 197.97 204.69 209.577 212.988C211.229 213.118 212.881 213.118 214.577 212.901C215.577 211.641 216.577 210.425 217.577 209.165C217.577 202.996 216.925 196.957 215.751 190.962C215.316 189.616 214.968 188.225 214.751 186.792L215.012 185.315L214.707 184.316L214.838 183.186L214.36 182.361L214.925 181.275L216.142 180.579C216.142 180.579 216.142 180.536 216.185 180.493C245.488 173.368 271.616 161.595 285.311 132.966C298.179 106.075 283.572 73.4933 297.005 49.513C296.875 48.2097 296.918 46.9064 297.179 45.6031C296.614 44.0827 295.701 42.8228 294.527 41.7367C292.527 41.0417 290.571 40.3031 288.658 39.4343C288.006 39.3474 287.31 39.1736 286.702 38.9564C286.397 38.2613 286.006 37.6966 285.441 37.2187C271.573 -1.44524 238.445 -4.70344 203.665 8.80722C202.795 9.58919 201.839 10.2408 200.752 10.7187L198.317 13.4121L198.23 13.6294L198.056 17.6261L199.1 18.7121L199.491 20.4933L200.143 21.3187C200.187 21.8835 200.361 22.4048 200.665 22.8826C200.491 23.404 200.404 23.9253 200.404 24.49C193.752 37.349 189.796 51.5113 190.274 66.0212C190.014 66.7163 189.753 67.4114 189.535 68.1499C161.016 92.2606 127.627 111.636 102.107 139.135C101.368 140.656 100.673 142.22 99.9336 143.74C100.629 144.956 101.064 146.26 101.281 147.606C102.455 148.606 103.368 149.779 104.064 151.125L104.194 151.212H104.238Z" stroke="#DA9A73" stroke-width="0.25" stroke-miterlimit="10"/>
<path d="M112.93 161.29C134.537 174.54 159.188 182.186 184.36 184.662C193.359 196.956 200.663 210.771 210.271 222.674C211.271 223.239 212.271 223.76 213.314 224.238C217.748 224.586 222.183 223.847 226.269 222.022C227.226 221.023 228.269 220.241 229.443 219.59V219.503C229.53 218.156 229.747 216.809 230.095 215.506C227.269 205.645 223.704 195.783 219.661 186.269V186.182L218.4 184.01L218.748 183.272L219.661 182.75C281.396 173.367 305.524 122.365 296.177 64.3691C298.568 59.9379 301.133 55.5502 303.785 51.2928C304.003 49.9461 304.481 48.7297 305.263 47.5567C305.003 46.2535 304.959 44.9067 305.176 43.56L303.742 42.1699C302.655 41.9526 301.698 41.5182 300.829 40.8666C297.307 40.2584 293.786 39.824 290.221 39.5199C275.657 -5.44328 227.748 -7.3982 190.924 14.1928C190.577 15.6698 190.49 17.1469 190.707 18.6674C191.794 19.2321 192.837 19.8838 193.881 20.5789L194.968 21.8387C196.359 22.0994 197.706 22.5338 199.011 23.0551L199.75 23.9674L200.967 24.228L201.489 24.7059C202.054 24.7059 202.576 24.6625 203.141 24.619L203.576 25.4879L202.706 27.0084C195.576 39.4764 192.055 53.8125 193.359 68.1486L192.837 69.7994C163.144 92.5199 132.798 114.502 103.627 137.744C102.062 138.482 100.453 138.83 98.7141 138.83C97.8446 138.613 97.1925 138.569 96.0186 138.83L95.4969 138.613L93.3667 138.439L91.8016 137.657L90.8451 137.483L89.4974 136.658C88.1932 136.31 87.0193 135.963 85.6716 135.615C84.6282 135.007 83.8891 134.616 82.9327 134.138C64.8471 124.233 50.0222 130.272 36.458 144.347C35.4146 146.085 34.0234 147.475 32.3279 148.517L32.0236 149.256C31.1975 150.125 30.5454 151.081 30.0237 152.123L29.3281 152.731L29.5455 154.99L30.7628 156.945C51.9786 159.595 73.1943 153.557 94.0623 150.429C94.8448 150.69 95.6708 150.82 96.4969 150.95L96.5838 151.037L98.801 151.211L99.5836 151.819L100.757 152.297L102.062 153.644L102.67 153.948C106.018 156.598 109.452 159.074 113.061 161.376L112.93 161.29Z" stroke="#DA9A73" stroke-width="0.25" stroke-miterlimit="10"/>
<path d="M101.369 155.472C102.76 156.297 104.064 157.166 105.368 158.122C129.671 174.369 158.669 185.36 188.058 187.011C193.275 195.699 198.187 204.779 203.274 213.554C203.622 214.597 204.143 215.553 204.882 216.378C205.23 217.421 205.752 218.377 206.491 219.245C208.056 222.46 209.926 225.631 211.969 228.629C212.838 229.237 213.708 229.845 214.621 230.41C222.577 230.193 230.533 228.803 238.097 226.37C238.749 225.24 239.532 224.285 240.575 223.459L240.836 222.504L240.358 222.156C240.271 221.157 240.01 220.201 239.619 219.289L239.358 218.941C239.141 217.986 238.793 217.073 238.315 216.204L238.01 215.857C237.749 214.945 237.402 214.076 236.923 213.25L236.576 212.859C232.185 203.693 227.446 194.657 222.533 185.708L222.707 185.36L223.142 185.099C284.181 177.714 312.179 123.411 300.006 66.3273C305.136 59.5502 310.005 52.4256 314.396 45.1272V41.9559V41.6953L312.135 40.3486C306.57 40.0879 300.919 40.4789 295.397 41.4346L294.049 41.2174C283.485 1.33706 254.835 0.337879 219.968 5.76821C208.1 7.5928 196.361 9.85182 184.754 12.7625C183.797 13.4576 182.71 13.9354 181.58 14.1961L180.363 15.4125L181.015 16.8895L181.189 19.192L182.623 20.3215L184.101 22.4067C185.71 23.319 187.319 24.2748 188.927 25.1871C189.275 25.1871 189.579 25.274 189.884 25.3608L190.318 25.6649C193.666 26.5772 197.014 27.2289 200.448 27.6199L202.057 27.1854L203.187 27.533C204.23 27.4895 205.23 27.4026 206.274 27.3158L206.491 27.7502C197.97 40.2617 194.492 55.5969 196.535 70.5412L196.274 71.3666C166.19 93.2183 135.888 114.94 106.716 137.964L104.673 138.529C101.586 137.704 98.5863 136.835 95.5431 135.879C85.7612 132.49 75.849 129.363 65.8932 126.365C64.7194 126.365 63.589 126.322 62.4587 126.104C54.155 131.231 46.1556 136.965 38.591 143.134L38.0258 143.395C36.3737 144.828 34.5913 146.218 32.7653 147.478C31.2872 149.042 29.5482 150.389 27.6788 151.475L26.418 152.908C25.2007 153.604 24.1138 154.386 23.0269 155.254L21.7227 157.079C20.5489 157.731 19.5055 158.469 18.5056 159.338L17.4187 162.118L15.6797 163.422L17.6361 164.551H18.6795L20.6793 165.072C47.6772 164.681 74.4578 158.513 101.282 155.558L101.369 155.472Z" stroke="#DA9A73" stroke-width="0.25" stroke-miterlimit="10"/>
</g>
<defs>
<clipPath id="clip0_99_7637">
<rect width="327.801" height="235.198" fill="white" transform="translate(0.332031 0.335938)"/>
</clipPath>
</defs>
</svg>
