<svg width="347" height="225" viewBox="0 0 347 225" fill="none" xmlns="http://www.w3.org/2000/svg">
<path d="M346.45 46.5562H315.884C315.884 46.5562 304.615 0.777344 264.9 0.777344H187.384C187.384 0.777344 190.752 20.5691 221.359 21.276C206.264 39.4877 211.004 62.4811 211.004 62.4811L114.151 115.911L68.2397 96.3267L0.496094 133.665H109.659C109.659 133.665 148.917 166.388 202.355 176.824L228.346 224.682H279.954V217.614H260.159L239.657 179.818C350.609 179.818 322.33 72.377 322.33 72.4186L346.492 46.5147L346.45 46.5562ZM232.546 217.655L211.212 178.363C217.866 179.319 224.686 179.86 231.673 179.984L252.133 217.697H232.546V217.655ZM299.25 112.917L270.306 102.231L241.362 112.917V88.6761L270.306 99.362L299.25 88.6761V112.917Z" fill="white"/>
</svg>
