<svg width="1138" height="226" viewBox="0 0 1138 226" fill="none" xmlns="http://www.w3.org/2000/svg">
<path d="M456.652 0.777344H511.088C551.843 0.777344 563.57 5.89161 563.57 23.0223C563.57 36.0367 556.875 42.7309 539.117 45.5168C559.495 48.261 566.855 55.2463 566.855 69.1754C566.855 87.3456 554.379 92.8341 512.419 92.8341H456.652V0.777344ZM511.213 41.4004C544.108 41.4004 554.754 37.8662 554.754 24.7271C554.754 12.5027 545.397 9.09322 511.213 9.09322H465.843V41.442H511.213V41.4004ZM512.544 84.5598C548.183 84.5598 557.789 80.8592 557.789 68.0112C557.789 53.9574 546.852 49.841 512.544 49.841H465.843V84.5598H512.544Z" fill="white"/>
<path d="M581.703 60.9026V24.4375H590.519V60.861C590.519 76.3701 603.536 85.5592 627.198 85.5592C655.352 85.5592 670.739 75.8296 670.739 58.6157V24.4375H679.555V92.8356H670.739V76.6612C663.628 87.8461 648.366 93.7503 625.618 93.7503C596.924 93.7503 581.703 81.9002 581.703 60.861V60.9026Z" fill="white"/>
<path d="M713.696 32.4608H691.738V24.436H713.696V0.777344H722.512V24.436H774.453V32.4608H722.512V66.8054C722.512 79.5703 732.243 86.0151 751.705 86.0151C758.026 86.0151 767.217 85.3498 777.073 84.0608V91.2956C766.552 93.0004 756.945 93.7904 749.959 93.7904C726.296 93.7904 713.654 84.3103 713.654 67.0964V32.4608H713.696Z" fill="white"/>
<path d="M794.246 0.777344H803.062V92.8341H794.246V0.777344Z" fill="white"/>
<path d="M921.294 55.9969V61.6517H829.472C831.177 77.9508 846.065 85.8509 875.383 85.8509C899.337 85.8509 912.062 80.7367 912.062 71.7971H920.753C920.753 86.2667 905.242 93.751 875.383 93.751C838.288 93.751 820.531 82.3167 820.531 58.2422C820.531 35.623 838.039 23.5234 871.557 23.5234C905.076 23.5234 921.294 34.9578 921.294 55.9969ZM829.639 54.4585H912.644C912.519 39.7394 898.048 31.4235 871.474 31.4235C844.901 31.4235 831.759 39.6978 829.639 54.4585Z" fill="white"/>
<path d="M946.785 24.4382V45.2279C955.976 31.0077 977.975 23.5234 1011.37 23.5234V32.7125C969.533 32.7125 946.785 43.6479 946.785 63.2318V92.8363H937.969V24.4382H946.785Z" fill="white"/>
<path d="M557.414 140.813H465.218C465.218 150.418 478.484 164.347 500.732 178.276L542.942 204.596C551.093 196.696 555.044 185.511 555.044 170.667H563.569C563.569 186.966 559.119 199.856 550.137 208.92L571.054 221.935V224.721H560.284L543.566 214.201C532.795 221.685 517.658 225.635 498.196 225.635C467.963 225.635 452.035 216.571 452.035 198.151C452.035 186.052 459.022 176.073 473.494 167.632C460.727 155.782 453.782 143.558 453.782 132.539H557.414V140.813ZM495.825 184.596C489.795 180.771 484.389 176.987 479.524 173.037C467.048 179.732 460.56 188.048 460.56 197.611C460.56 211.415 473.701 217.985 498.57 217.985C514.331 217.985 526.724 215.074 535.665 209.419L495.825 184.555V184.596Z" fill="white"/>
<path d="M743.348 202.231C735.987 217.615 718.105 225.64 690.617 225.64C650.362 225.64 627.988 208.676 627.988 178.572C627.988 148.469 650.861 131.754 694.401 131.754C731.87 131.754 752.414 143.729 752.414 166.223H743.223C743.223 149.508 725.84 140.195 694.567 140.195C657.348 140.195 637.22 153.874 637.22 178.614C637.22 203.354 656.932 217.158 692.447 217.158C724.551 217.158 741.892 205.599 742.308 184.684H688.787V176.66H752.455V224.809H743.389V202.314L743.348 202.231Z" fill="white"/>
<path d="M774.074 132.543H782.89V224.724H774.074V132.543Z" fill="white"/>
<path d="M852.129 155.414C885.814 155.414 903.82 167.638 903.82 190.507C903.82 213.376 885.647 225.6 852.129 225.6C818.611 225.6 800.438 213.251 800.438 190.507C800.438 167.763 818.444 155.414 852.129 155.414ZM852.129 217.492C879.617 217.492 894.879 207.638 894.879 190.549C894.879 173.46 879.742 163.439 852.129 163.439C824.516 163.439 809.378 173.293 809.378 190.549C809.378 207.804 824.516 217.492 852.129 217.492Z" fill="white"/>
<path d="M973.605 225.639C951.897 225.639 937.175 219.693 930.355 208.675V224.724H921.539V132.543H930.355V172.251C937.175 161.191 951.938 155.412 973.605 155.412C1006.21 155.412 1023.47 167.636 1023.47 190.505C1023.47 213.373 1006.08 225.598 973.605 225.598V225.639ZM972.399 163.436C945.16 163.436 930.314 173.291 930.314 190.546C930.314 207.802 945.16 217.49 972.399 217.49C999.638 217.49 1014.61 207.635 1014.61 190.546C1014.61 173.457 999.721 163.436 972.399 163.436Z" fill="white"/>
<path d="M1137.3 187.888V193.542H1045.48C1047.18 209.841 1062.07 217.742 1091.39 217.742C1115.34 217.742 1128.07 212.627 1128.07 203.688H1136.76C1136.76 218.157 1121.25 225.642 1091.39 225.642C1054.29 225.642 1036.54 214.207 1036.54 190.133C1036.54 167.514 1054.04 155.414 1087.56 155.414C1121.08 155.414 1137.3 166.848 1137.3 187.888ZM1045.6 186.308H1128.61C1128.48 171.588 1114.01 163.273 1087.44 163.273C1060.86 163.273 1047.72 171.547 1045.6 186.308Z" fill="white"/>
<path d="M346.45 46.5562H315.884C315.884 46.5562 304.615 0.777344 264.9 0.777344H187.384C187.384 0.777344 190.752 20.5691 221.359 21.276C206.264 39.4877 211.004 62.4811 211.004 62.4811L114.151 115.911L68.2397 96.3267L0.496094 133.665H109.659C109.659 133.665 148.917 166.388 202.355 176.824L228.346 224.682H279.954V217.614H260.159L239.657 179.818C350.609 179.818 322.33 72.377 322.33 72.4186L346.492 46.5147L346.45 46.5562ZM232.546 217.655L211.212 178.363C217.866 179.319 224.686 179.86 231.673 179.984L252.133 217.697H232.546V217.655ZM299.25 112.917L270.306 102.231L241.362 112.917V88.6761L270.306 99.362L299.25 88.6761V112.917Z" fill="white"/>
</svg>
