<svg width="686" height="226" viewBox="0 0 686 226" fill="none" xmlns="http://www.w3.org/2000/svg">
<path d="M4.65234 0.777344H59.0884C99.8427 0.777344 111.57 5.89161 111.57 23.0223C111.57 36.0367 104.875 42.7309 87.1174 45.5168C107.495 48.261 114.855 55.2463 114.855 69.1754C114.855 87.3456 102.379 92.8341 60.4192 92.8341H4.65234V0.777344ZM59.2132 41.4004C92.1077 41.4004 102.754 37.8662 102.754 24.7271C102.754 12.5027 93.3969 9.09322 59.2132 9.09322H13.8428V41.442H59.2132V41.4004ZM60.5439 84.5598C96.1831 84.5598 105.789 80.8592 105.789 68.0112C105.789 53.9574 94.8524 49.841 60.5439 49.841H13.8428V84.5598H60.5439Z" fill="white"/>
<path d="M129.703 60.9026V24.4375H138.519V60.861C138.519 76.3701 151.536 85.5592 175.198 85.5592C203.352 85.5592 218.739 75.8296 218.739 58.6157V24.4375H227.555V92.8356H218.739V76.6612C211.628 87.8461 196.366 93.7503 173.618 93.7503C144.924 93.7503 129.703 81.9002 129.703 60.861V60.9026Z" fill="white"/>
<path d="M261.696 32.4608H239.738V24.436H261.696V0.777344H270.512V24.436H322.453V32.4608H270.512V66.8054C270.512 79.5703 280.243 86.0151 299.705 86.0151C306.026 86.0151 315.217 85.3498 325.073 84.0608V91.2956C314.552 93.0004 304.945 93.7904 297.959 93.7904C274.296 93.7904 261.654 84.3103 261.654 67.0964V32.4608H261.696Z" fill="white"/>
<path d="M342.246 0.777344H351.062V92.8341H342.246V0.777344Z" fill="white"/>
<path d="M469.294 55.9969V61.6517H377.472C379.177 77.9508 394.065 85.8509 423.383 85.8509C447.337 85.8509 460.062 80.7367 460.062 71.7971H468.753C468.753 86.2667 453.242 93.751 423.383 93.751C386.288 93.751 368.531 82.3167 368.531 58.2422C368.531 35.623 386.039 23.5234 419.557 23.5234C453.076 23.5234 469.294 34.9578 469.294 55.9969ZM377.639 54.4585H460.644C460.519 39.7394 446.048 31.4235 419.474 31.4235C392.901 31.4235 379.759 39.6978 377.639 54.4585Z" fill="white"/>
<path d="M494.785 24.4382V45.2279C503.976 31.0077 525.975 23.5234 559.368 23.5234V32.7125C517.533 32.7125 494.785 43.6479 494.785 63.2318V92.8363H485.969V24.4382H494.785Z" fill="white"/>
<path d="M105.414 140.813H13.2179C13.2179 150.418 26.4839 164.347 48.7324 178.276L90.9422 204.596C99.093 196.696 103.044 185.511 103.044 170.667H111.569C111.569 186.966 107.119 199.856 98.1365 208.92L119.054 221.935V224.721H108.284L91.5659 214.201C80.7952 221.685 65.6579 225.635 46.1956 225.635C15.9626 225.635 0.0351562 216.571 0.0351562 198.151C0.0351562 186.052 7.02159 176.073 21.4935 167.632C8.72662 155.782 1.78176 143.558 1.78176 132.539H105.414V140.813ZM43.8252 184.596C37.7953 180.771 32.3891 176.987 27.5235 173.037C15.0477 179.732 8.56027 188.048 8.56027 197.611C8.56027 211.415 21.7014 217.985 46.5699 217.985C62.331 217.985 74.7236 215.074 83.6646 209.419L43.8252 184.555V184.596Z" fill="white"/>
<path d="M291.348 202.231C283.987 217.615 266.105 225.64 238.617 225.64C198.362 225.64 175.988 208.676 175.988 178.572C175.988 148.469 198.861 131.754 242.401 131.754C279.87 131.754 300.414 143.729 300.414 166.223H291.223C291.223 149.508 273.84 140.195 242.567 140.195C205.348 140.195 185.22 153.874 185.22 178.614C185.22 203.354 204.932 217.158 240.447 217.158C272.551 217.158 289.892 205.599 290.308 184.684H236.787V176.66H300.455V224.809H291.389V202.314L291.348 202.231Z" fill="white"/>
<path d="M322.074 132.543H330.89V224.724H322.074V132.543Z" fill="white"/>
<path d="M400.129 155.414C433.814 155.414 451.82 167.638 451.82 190.507C451.82 213.376 433.647 225.6 400.129 225.6C366.611 225.6 348.438 213.251 348.438 190.507C348.438 167.763 366.444 155.414 400.129 155.414ZM400.129 217.492C427.617 217.492 442.879 207.638 442.879 190.549C442.879 173.46 427.742 163.439 400.129 163.439C372.516 163.439 357.378 173.293 357.378 190.549C357.378 207.804 372.516 217.492 400.129 217.492Z" fill="white"/>
<path d="M521.605 225.639C499.897 225.639 485.175 219.693 478.355 208.675V224.724H469.539V132.543H478.355V172.251C485.175 161.191 499.938 155.412 521.605 155.412C554.208 155.412 571.466 167.636 571.466 190.505C571.466 213.373 554.083 225.598 521.605 225.598V225.639ZM520.399 163.436C493.16 163.436 478.314 173.291 478.314 190.546C478.314 207.802 493.16 217.49 520.399 217.49C547.638 217.49 562.609 207.635 562.609 190.546C562.609 173.457 547.721 163.436 520.399 163.436Z" fill="white"/>
<path d="M685.298 187.888V193.542H593.476C595.181 209.841 610.069 217.742 639.387 217.742C663.341 217.742 676.066 212.627 676.066 203.688H684.757C684.757 218.157 669.246 225.642 639.387 225.642C602.292 225.642 584.535 214.207 584.535 190.133C584.535 167.514 602.043 155.414 635.561 155.414C669.079 155.414 685.298 166.848 685.298 187.888ZM593.601 186.308H676.607C676.482 171.588 662.01 163.273 635.436 163.273C608.863 163.273 595.722 171.547 593.601 186.308Z" fill="white"/>
</svg>
