<svg width="325" height="324" viewBox="0 0 325 324" fill="none" xmlns="http://www.w3.org/2000/svg">
<path d="M152.306 9.92719L144.867 1.00769L148.43 0.79967L152.93 6.3906C153.086 6.57263 153.216 6.78067 153.372 6.98871C153.502 7.19674 153.632 7.40477 153.736 7.6128H153.814C153.918 7.40477 154.022 7.17074 154.1 6.93671C154.204 6.70267 154.308 6.49463 154.438 6.2866L158.392 0.201561L161.617 0.0195312L155.323 9.66715L155.609 14.816L152.618 14.972L152.332 9.87519L152.306 9.92719Z" fill="#E09363"/>
<path d="M178.863 8.0287C179.253 5.55828 180.319 3.84199 182.062 2.90583C183.778 1.94367 185.859 1.65762 188.278 2.04768C190.697 2.43775 192.569 3.37391 193.922 4.83015C195.274 6.2864 195.742 8.23673 195.352 10.7071V10.9152C194.91 13.3856 193.844 15.0759 192.101 16.0381C190.358 17.0002 188.278 17.2602 185.885 16.8962C183.492 16.5061 181.62 15.57 180.267 14.1137C178.915 12.6575 178.473 10.7072 178.863 8.23674V8.0287ZM182.634 12.8655C183.466 13.7757 184.637 14.3478 186.223 14.6078C187.784 14.8678 189.11 14.6858 190.202 14.0877C191.269 13.4896 191.945 12.3454 192.231 10.6551L192.335 9.97903C192.595 8.28874 192.335 6.98852 191.503 6.07837C190.671 5.16822 189.474 4.59613 187.914 4.33608C186.327 4.07604 185.027 4.25806 183.96 4.85616C182.894 5.45426 182.218 6.59845 181.958 8.28874L181.854 8.96486C181.568 10.6551 181.854 11.9554 182.66 12.8655H182.634Z" fill="#E09363"/>
<path d="M215.245 9.01684L218.054 10.135L214.829 18.2224C214.361 19.3926 214.361 20.4068 214.855 21.2389C215.349 22.0711 216.208 22.7472 217.456 23.2412C218.679 23.7353 219.771 23.8393 220.681 23.5533C221.617 23.2673 222.32 22.5391 222.788 21.3689L226.013 13.2556L228.744 14.3477L225.571 22.3311C224.791 24.2814 223.568 25.4776 221.904 25.8677C220.239 26.2838 218.444 26.1017 216.572 25.3476C214.673 24.5935 213.269 23.5013 212.332 22.045C211.396 20.5888 211.318 18.8985 212.098 16.9222L215.271 8.96484L215.245 9.01684Z" fill="#E09363"/>
<path d="M246.483 23.7617L251.971 27.4283C253.766 28.6245 254.962 29.8728 255.534 31.147C256.106 32.4472 255.976 33.6954 255.144 34.9436C254.338 36.1658 253.219 36.7379 251.789 36.7379C250.359 36.7379 248.746 36.1138 246.925 34.9696L243.96 32.9933L240.995 37.44L238.473 35.7757L246.483 23.7617ZM248.096 33.1493C249.266 33.9294 250.229 34.3195 250.931 34.2935C251.659 34.2935 252.205 33.9554 252.621 33.3313C253.063 32.6812 253.141 32.0311 252.855 31.407C252.569 30.7829 251.841 30.0808 250.671 29.3007L247.68 27.3243L245.105 31.199L248.07 33.1753L248.096 33.1493ZM247.498 33.7474L250.203 35.5157L250.463 43.7591L247.524 41.8088V33.7214L247.498 33.7474Z" fill="#E09363"/>
<path d="M287.524 59.3619L291.218 64.2768C292.726 66.2791 293.48 68.3074 293.532 70.3878C293.584 72.4681 292.674 74.1844 290.801 75.5887L290.619 75.7187C288.747 77.1229 286.848 77.513 284.871 76.8629C282.895 76.2388 281.152 74.9126 279.644 72.9102L275.977 67.9954L287.524 59.3359V59.3619ZM281.412 71.558C282.453 72.9362 283.597 73.8464 284.845 74.2104C286.094 74.6005 287.394 74.2625 288.721 73.2743L288.981 73.0923C290.333 72.1041 290.983 70.9339 290.957 69.6337C290.957 68.3334 290.411 66.9812 289.371 65.603L287.498 63.1066L279.54 69.0616L281.412 71.558Z" fill="#E09363"/>
<path d="M306.407 88.2266L311.686 99.5385L309.606 100.527L305.6 91.9192L302.375 93.4274L305.886 100.969L303.832 101.905L300.321 94.3896L296.679 96.0799L300.737 104.791L298.656 105.754L293.324 94.3376L306.407 88.2266Z" fill="#E09363"/>
<path d="M308.018 119.301L308.746 122.265L308.538 122.317C307.81 122.499 307.342 122.993 307.186 123.799C307.004 124.605 307.082 125.672 307.394 126.972C307.706 128.272 308.122 129.234 308.616 129.858C309.137 130.482 309.657 130.742 310.229 130.612C310.749 130.482 311.113 130.092 311.269 129.416C311.425 128.74 311.477 127.284 311.347 125.021C311.243 122.759 311.373 121.121 311.79 120.107C312.206 119.092 312.986 118.442 314.182 118.156C315.405 117.87 316.523 118.208 317.537 119.222C318.552 120.211 319.332 121.771 319.826 123.851C320.32 125.906 320.32 127.648 319.8 129.052C319.28 130.482 318.422 131.341 317.251 131.601L317.017 131.653L316.315 128.74L316.523 128.688C317.173 128.532 317.589 128.09 317.797 127.362C318.006 126.634 317.954 125.62 317.667 124.371C317.355 123.123 316.991 122.213 316.549 121.667C316.107 121.121 315.587 120.913 315.015 121.043C314.546 121.147 314.26 121.563 314.13 122.239C314 122.915 313.974 124.345 314.078 126.504C314.156 128.74 314.026 130.378 313.662 131.419C313.298 132.459 312.466 133.135 311.165 133.447C309.839 133.759 308.643 133.369 307.602 132.303C306.562 131.211 305.755 129.624 305.261 127.492C304.767 125.386 304.715 123.591 305.131 122.083C305.547 120.601 306.458 119.691 307.836 119.353L308.07 119.301H308.018Z" fill="#E09363"/>
<path d="M323.728 148.738L324.3 163.769L321.985 163.847L321.751 157.84L309.631 158.282L309.527 155.265L321.647 154.823L321.413 148.816L323.728 148.738Z" fill="#E09363"/>
<path d="M322.897 182.127L322.48 185.144L308.176 183.22L308.592 180.203L322.897 182.127Z" fill="#E09363"/>
<path d="M318.578 204.699L317.642 207.586L306.198 212.345C305.886 212.449 305.548 212.553 305.158 212.657C304.768 212.761 304.456 212.813 304.222 212.839V212.943C304.404 212.969 304.638 213.021 304.898 213.073C305.158 213.125 305.392 213.203 305.6 213.255L314.859 216.245L314.053 218.716L300.32 214.269L301.283 211.304L312.388 206.598C312.778 206.468 313.169 206.364 313.611 206.26C314.053 206.182 314.365 206.104 314.599 206.078L314.651 205.948C314.443 205.922 314.183 205.87 313.897 205.818C313.611 205.766 313.377 205.713 313.169 205.635L304.092 202.697L304.898 200.227L318.63 204.673L318.578 204.699Z" fill="#E09363"/>
<path d="M303.259 241.65L301.646 244.433L285.547 243.262L287.237 240.376L298.057 241.39C298.525 241.442 298.967 241.52 299.383 241.598C299.8 241.676 300.19 241.754 300.528 241.806L300.58 241.702C300.346 241.442 300.086 241.13 299.826 240.818C299.539 240.506 299.279 240.142 298.993 239.752L292.751 230.832L294.208 228.336L303.259 241.676V241.65ZM296.887 234.577L292.413 242.3L290.046 241.962L295.404 232.705L296.887 234.577Z" fill="#E09363"/>
<path d="M288.851 263.158L278.942 274.47L277.199 272.962L281.152 268.437L272.023 260.454L274 258.191L283.129 266.175L287.082 261.65L288.825 263.184L288.851 263.158Z" fill="#E09363"/>
<path d="M265.368 286.849L263.001 288.773L253.898 277.565L256.265 275.641L265.368 286.849Z" fill="#E09363"/>
<path d="M243.883 293.817C245.079 296.001 245.287 298.004 244.507 299.824C243.726 301.644 242.27 303.127 240.111 304.323C237.979 305.493 235.924 305.909 233.947 305.597C231.997 305.285 230.41 304.011 229.214 301.826L229.11 301.644C227.913 299.46 227.705 297.458 228.485 295.611C229.266 293.791 230.748 292.283 232.881 291.113C235.014 289.942 237.068 289.526 239.019 289.838C240.969 290.176 242.556 291.425 243.752 293.609L243.856 293.791L243.883 293.817ZM237.927 292.335C236.73 292.127 235.43 292.413 234.025 293.167C232.621 293.921 231.684 294.883 231.216 296.001C230.748 297.12 230.904 298.446 231.737 299.954L232.075 300.552C232.907 302.06 233.921 302.919 235.118 303.101C236.314 303.309 237.64 303.023 239.019 302.268C240.423 301.488 241.36 300.552 241.828 299.434C242.296 298.316 242.114 296.99 241.308 295.507L240.969 294.883C240.137 293.375 239.123 292.517 237.927 292.309V292.335Z" fill="#E09363"/>
<path d="M214.364 315.48L211.451 316.312L201.099 309.499C200.839 309.317 200.553 309.083 200.241 308.797C199.929 308.511 199.695 308.303 199.565 308.147H199.461C199.565 308.381 199.669 308.615 199.747 308.849C199.851 309.083 199.929 309.317 199.981 309.525L202.686 318.861L200.189 319.589L196.184 305.702L199.175 304.844L209.292 311.423C209.604 311.657 209.916 311.944 210.254 312.256C210.566 312.568 210.8 312.802 210.956 312.958H211.087C211.008 312.724 210.904 312.49 210.8 312.23C210.696 311.97 210.618 311.735 210.54 311.501L207.887 302.322L210.384 301.594L214.39 315.48H214.364Z" fill="#E09363"/>
<path d="M159.535 323.905L156.492 323.827L156.856 309.395L159.899 309.473L159.535 323.905Z" fill="#E09363"/>
<path d="M139.513 312.305L136.496 311.706L136.548 311.498C136.704 310.77 136.444 310.146 135.794 309.652C135.143 309.158 134.155 308.768 132.829 308.482C131.528 308.222 130.462 308.196 129.682 308.378C128.875 308.56 128.433 308.95 128.329 309.522C128.225 310.042 128.433 310.536 128.979 310.978C129.525 311.42 130.826 312.044 132.933 312.903C135.039 313.761 136.47 314.593 137.198 315.373C137.926 316.153 138.186 317.167 137.952 318.364C137.692 319.586 136.912 320.444 135.585 320.938C134.259 321.432 132.516 321.484 130.41 321.068C128.329 320.652 126.769 319.898 125.702 318.832C124.636 317.765 124.22 316.621 124.454 315.451L124.506 315.217L127.445 315.815V316.023C127.289 316.673 127.497 317.245 128.069 317.739C128.641 318.234 129.578 318.624 130.826 318.884C132.1 319.144 133.089 319.196 133.765 319.014C134.441 318.858 134.857 318.468 134.961 317.895C135.065 317.427 134.831 316.985 134.259 316.569C133.687 316.153 132.412 315.529 130.41 314.723C128.355 313.865 126.925 313.033 126.118 312.253C125.312 311.472 125.052 310.432 125.312 309.132C125.572 307.806 126.43 306.896 127.861 306.376C129.291 305.881 131.06 305.855 133.193 306.272C135.325 306.688 136.964 307.416 138.134 308.43C139.305 309.444 139.773 310.64 139.487 312.044L139.435 312.279L139.513 312.305Z" fill="#E09363"/>
<path d="M89.7325 298.992C88.4581 301.124 86.8195 302.32 84.8689 302.58C82.9183 302.84 80.8896 302.32 78.7829 301.072C76.7022 299.824 75.2978 298.264 74.5695 296.391C73.8673 294.545 74.1534 292.543 75.4278 290.41L75.5318 290.228C76.8063 288.096 78.4448 286.9 80.4215 286.666C82.3981 286.432 84.4268 286.926 86.5074 288.2C88.5881 289.448 89.9926 291.008 90.6948 292.855C91.397 294.701 91.1109 296.703 89.8365 298.836L89.7325 299.018V298.992ZM88.0159 293.089C87.5998 291.944 86.6895 290.956 85.3371 290.15C83.9846 289.318 82.6842 289.006 81.4618 289.162C80.2394 289.318 79.199 290.124 78.3147 291.606L77.9506 292.204C77.0663 293.661 76.8583 294.987 77.2744 296.131C77.7166 297.275 78.6008 298.264 79.9793 299.096C81.3317 299.928 82.6322 300.24 83.8286 300.084C85.051 299.928 86.0913 299.096 86.9756 297.639L87.3397 297.041C88.224 295.559 88.4581 294.259 88.0419 293.115L88.0159 293.089Z" fill="#E09363"/>
<path d="M56.2053 284.535L54.0206 282.481L60.0286 276.136C60.8868 275.225 61.2509 274.289 61.1209 273.327C60.9909 272.365 60.4187 271.429 59.4564 270.493C58.494 269.582 57.5317 269.088 56.5694 268.984C55.6071 268.906 54.6968 269.322 53.8125 270.233L47.8046 276.578L45.6719 274.549L51.5758 268.308C53.0323 266.774 54.5928 266.124 56.3094 266.384C57.9999 266.618 59.6124 267.45 61.0689 268.828C62.5514 270.233 63.4617 271.767 63.7738 273.457C64.1119 275.147 63.5397 276.76 62.1092 278.294L56.2053 284.535Z" fill="#E09363"/>
<path d="M32.6925 259.31L28.9473 253.875C27.7249 252.107 27.0747 250.494 27.0227 249.09C26.9706 247.686 27.5689 246.542 28.7913 245.683C29.9876 244.851 31.2621 244.721 32.5625 245.267C33.8889 245.814 35.1633 246.958 36.4117 248.7L38.4404 251.638L42.8619 248.596L44.5784 251.066L32.6925 259.258V259.31ZM34.6432 250C33.8369 248.83 33.1087 248.154 32.4324 247.894C31.7562 247.66 31.106 247.738 30.5078 248.154C29.8576 248.596 29.5455 249.168 29.5715 249.844C29.5975 250.546 30.0137 251.456 30.8199 252.627L32.8486 255.591L36.6718 252.939L34.6432 250ZM35.4494 249.662L33.6028 247.01L36.4117 239.234L38.4144 242.147L35.4494 249.662Z" fill="#E09363"/>
<path d="M7.64759 210.941L6.78931 207.483L15.7362 199.525C15.9183 199.369 16.1264 199.187 16.3344 199.005C16.5425 198.823 16.7246 198.667 16.9066 198.563V198.485C16.6986 198.485 16.4645 198.433 16.2044 198.381C15.9443 198.329 15.6842 198.277 15.4502 198.225L3.79834 195.313L2.91406 191.776L16.9327 188.266L17.6609 191.152L8.08973 193.545C7.88167 193.597 7.64762 193.648 7.38753 193.675C7.12745 193.701 6.89337 193.753 6.6593 193.779V193.857C6.91938 193.857 7.15343 193.857 7.43952 193.857C7.72561 193.857 7.98571 193.909 8.21978 193.961L19.0653 196.665L19.7416 199.369L11.4449 206.833C11.2628 206.989 11.0547 207.145 10.8206 207.301C10.5866 207.457 10.3785 207.587 10.1704 207.665V207.743C10.4045 207.665 10.6386 207.587 10.8727 207.509C11.1067 207.431 11.3668 207.353 11.5749 207.301L21.146 204.908L21.7442 207.327L7.72562 210.811L7.64759 210.941Z" fill="#E09363"/>
<path d="M0.70292 171.883L0.546875 168.84L14.9816 168.086L15.1377 171.128L0.728914 171.883H0.70292Z" fill="#E09363"/>
<path d="M10.718 151.13L11.0821 148.087H11.2902C12.0445 148.217 12.6166 147.905 13.0848 147.203C13.5529 146.501 13.839 145.487 14.0211 144.16C14.1771 142.834 14.1251 141.794 13.8911 141.014C13.631 140.234 13.2148 139.818 12.6426 139.74C12.0964 139.662 11.6543 139.922 11.2382 140.494C10.8481 141.066 10.3019 142.444 9.62567 144.602C8.94945 146.761 8.22119 148.243 7.49295 149.049C6.76471 149.855 5.80241 150.193 4.58001 150.037C3.3316 149.881 2.42131 149.153 1.82311 147.879C1.22491 146.605 1.04282 144.863 1.30291 142.73C1.56299 140.624 2.16121 139.012 3.14953 137.867C4.13785 136.723 5.2302 136.203 6.42659 136.359H6.6607L6.29658 139.376H6.08851C5.43829 139.272 4.86611 139.532 4.42396 140.156C3.95581 140.78 3.6697 141.716 3.51365 142.99C3.3576 144.264 3.38359 145.253 3.61766 145.929C3.85174 146.605 4.24187 146.969 4.84007 147.047C5.30822 147.099 5.72439 146.839 6.08851 146.241C6.45263 145.643 6.97279 144.316 7.623 142.262C8.32523 140.13 9.02744 138.648 9.75568 137.789C10.4579 136.931 11.4723 136.593 12.7987 136.749C14.1512 136.905 15.1395 137.685 15.7376 139.064C16.3358 140.468 16.5179 142.236 16.2578 144.394C15.9977 146.553 15.4255 148.243 14.5152 149.491C13.6049 150.74 12.4346 151.286 11.0301 151.104H10.796L10.718 151.13Z" fill="#E09363"/>
<path d="M16.0738 120.679L17.0621 117.766L17.2702 117.818C17.9724 118.052 18.6226 117.896 19.2208 117.298C19.793 116.7 20.3132 115.79 20.7293 114.516C21.1454 113.268 21.3275 112.227 21.2235 111.421C21.1455 110.615 20.8074 110.121 20.2612 109.913C19.741 109.731 19.2469 109.913 18.7267 110.381C18.2325 110.875 17.4262 112.097 16.3079 114.074C15.1895 116.05 14.2012 117.35 13.3169 118C12.4326 118.625 11.4183 118.755 10.2739 118.391C9.07752 118 8.32326 117.09 7.98515 115.712C7.64704 114.334 7.82907 112.618 8.5313 110.563C9.20753 108.561 10.1438 107.105 11.3402 106.168C12.5366 105.232 13.707 104.972 14.8514 105.362L15.0855 105.44L14.1232 108.275L13.9151 108.197C13.2909 107.989 12.6927 108.145 12.1205 108.639C11.5483 109.133 11.0542 110.017 10.638 111.239C10.2219 112.462 10.0658 113.45 10.1439 114.152C10.2219 114.854 10.534 115.296 11.1062 115.478C11.5483 115.634 12.0165 115.452 12.5106 114.932C12.9788 114.412 13.7591 113.242 14.8254 111.369C15.9438 109.445 16.9321 108.119 17.8164 107.443C18.7007 106.767 19.741 106.611 21.0154 107.027C22.3158 107.469 23.0961 108.431 23.4082 109.913C23.7203 111.395 23.5382 113.164 22.836 115.244C22.1338 117.298 21.2235 118.833 20.0791 119.873C18.9347 120.913 17.6863 121.199 16.3339 120.757L16.0998 120.679H16.0738Z" fill="#E09363"/>
<path d="M19.0938 86.6394L20.5502 83.9609L33.2684 90.8261L31.8119 93.5045L19.1197 86.6394H19.0938Z" fill="#E09363"/>
<path d="M36.282 71.9228C34.3314 70.3626 33.369 68.5943 33.395 66.6179C33.395 64.6416 34.1753 62.6913 35.7098 60.793C37.2443 58.8946 38.9609 57.6984 40.9115 57.2304C42.8361 56.7883 44.7868 57.3344 46.7374 58.8686L46.9195 58.9987C48.8701 60.5589 49.8324 62.3272 49.8064 64.3036C49.7804 66.2799 49.0002 68.2302 47.4917 70.1285C45.9832 72.0268 44.2406 73.223 42.3159 73.6651C40.3913 74.1072 38.4407 73.5611 36.5161 72.0008L36.334 71.8708L36.282 71.9228ZM42.3419 71.0127C43.5383 70.7526 44.6307 69.9985 45.619 68.7503C46.6074 67.5021 47.1275 66.2799 47.1275 65.0317C47.1275 63.8095 46.4773 62.6393 45.1249 61.5731L44.5787 61.131C43.2522 60.0648 41.9778 59.6748 40.7815 59.9348C39.5851 60.1949 38.4927 60.975 37.5044 62.2232C36.5161 63.4714 36.0219 64.6936 36.0219 65.9158C36.0219 67.138 36.6981 68.2822 38.0246 69.3484L38.5707 69.7905C39.8972 70.8567 41.1716 71.2727 42.368 70.9867L42.3419 71.0127Z" fill="#E09363"/>
<path d="M55.1406 40.5609L57.5074 38.6626L69.7054 40.951C70.0175 41.029 70.3556 41.133 70.7717 41.263C71.1619 41.3931 71.4479 41.5231 71.656 41.6011L71.7601 41.5231C71.604 41.367 71.4219 41.211 71.2399 41.029C71.0578 40.847 70.9018 40.6649 70.7717 40.4829L64.6857 32.9156L66.7144 31.2773L75.7654 42.5372L73.3206 44.4876L61.4347 42.3292C61.0446 42.2252 60.6544 42.0952 60.2383 41.9392C59.8221 41.7831 59.5101 41.6531 59.328 41.5491L59.2239 41.6271C59.38 41.7831 59.5621 41.9651 59.7701 42.1472C59.9782 42.3552 60.1343 42.5372 60.2903 42.7193L66.2723 50.1565L64.2696 51.7688L55.2186 40.5349L55.1406 40.5609Z" fill="#E09363"/>
<path d="M104.452 15.8569C104.79 15.0768 105.362 14.5306 106.22 14.1926C107.079 13.8805 107.885 13.9066 108.639 14.2706C109.394 14.6347 109.94 15.2068 110.226 16.0129C110.512 16.793 110.486 17.5472 110.174 18.3273C109.836 19.1074 109.263 19.6535 108.405 19.9916C107.547 20.3036 106.741 20.2776 105.986 19.9136C105.232 19.5495 104.686 18.9774 104.4 18.1973C104.114 17.4171 104.114 16.637 104.452 15.8569Z" fill="#E09363"/>
</svg>
