<svg width="177" height="178" viewBox="0 0 177 178" fill="none" xmlns="http://www.w3.org/2000/svg">
<path d="M111.214 158.385L83.2025 149.959L84.0088 147.229L112.02 155.654C130.876 161.323 150.825 150.609 156.495 131.756C159.277 122.551 158.237 112.799 153.556 104.296L152.853 103.021L154.128 102.345C162.685 97.8464 168.953 90.2792 171.71 81.0736C177.379 62.2205 166.664 42.2751 147.808 36.6061L142.346 34.9679L143.152 32.2374L148.614 33.8757C168.979 39.9867 180.552 61.5183 174.414 81.8798C171.553 91.3714 165.285 99.2507 156.677 104.165C161.15 113.033 162.034 123.045 159.173 132.562C153.061 152.924 131.5 164.496 111.162 158.359L111.214 158.385ZM45.6722 138.673L0.9375 125.229L38.3898 0.746094L82.8384 14.1123L82.0321 16.8428L40.3144 4.3087L4.50069 123.357L46.5044 135.995L45.6982 138.725L45.6722 138.673ZM117.352 137.971L69.3139 123.513L70.1202 120.782L118.158 135.241C125.752 137.529 133.789 133.212 136.078 125.593C138.367 118 134.049 109.964 126.455 107.676L120.941 106.012L121.747 103.281L127.261 104.946C136.364 107.676 141.54 117.298 138.809 126.399C136.078 135.501 126.429 140.676 117.352 137.945V137.971ZM48.8973 117.376L27.4922 110.927L37.4275 77.9271L101.096 97.0663L100.29 99.7968L39.3521 81.4637L31.0554 109.028L49.7555 114.645L48.9493 117.376H48.8973ZM132.619 87.2887L127.729 85.8324L128.535 83.102L133.425 84.5582C141.019 86.8466 149.056 82.5298 151.345 74.9106C153.634 67.3173 149.316 59.2819 141.722 56.9935L93.7099 42.5611L94.5162 39.8307L142.528 54.2631C151.631 56.9936 156.807 66.6152 154.076 75.7167C151.345 84.8182 141.696 89.9931 132.619 87.2626V87.2887ZM106.48 79.4353L42.7332 60.2701L52.6685 27.2706L74.1515 33.7196L73.3453 36.4501L54.5931 30.8071L46.2964 58.3718L107.338 76.7309L106.532 79.4613L106.48 79.4353Z" fill="#E09363"/>
<path d="M84.9459 150.48L78.3397 148.504C69.2367 145.774 64.061 136.152 66.7919 127.051L77.4814 91.4766L80.2123 92.3087L69.5228 127.883C67.2341 135.476 71.5514 143.511 79.1459 145.8L85.7521 147.776L84.9459 150.506V150.48Z" fill="#E09363"/>
<path d="M92.7752 129.39L90.0703 128.584L110.357 61.1289L133.479 68.0721L113.374 134.981L110.643 134.149L129.941 69.9704L112.256 64.6655L92.7752 129.39Z" fill="#E09363"/>
<path d="M100.579 177.448L72.2034 168.919C51.8387 162.808 40.2649 141.276 46.4029 120.915L57.1444 85.2109L59.8754 86.0431L49.1338 121.747C43.464 140.6 54.1795 160.546 73.0357 166.215L98.68 173.938L104.298 155.267L107.029 156.099L100.605 177.474L100.579 177.448Z" fill="#E09363"/>
<path d="M86.4003 71.7905L83.6694 70.9583L94.3329 35.5144C97.0638 26.4128 106.713 21.238 115.79 23.9684L141.824 31.7957L147.156 14.1128L121.122 6.28543C102.265 0.616473 82.3169 11.3303 76.6471 30.1835L66.0356 65.4714L63.3047 64.6393L73.9162 29.3513C80.0282 8.98989 101.589 -2.58205 121.928 3.55498L150.667 12.2144L143.697 35.3323L114.958 26.6729C107.363 24.3845 99.3265 28.7012 97.0377 36.3205L86.3743 71.7645L86.4003 71.7905Z" fill="#E09363"/>
</svg>
